<svg xmlns="http://www.w3.org/2000/svg" viewBox="0 0 27 18"><defs><style>.a{fill:#fff;}.b{fill:#006fcf;}.c{fill:none;stroke:#e0e0e0;}</style></defs><rect class="a" x="0.5" y="0.5" width="26" height="17" rx="1.5"/><path class="b" d="M25.4.88H1.6A.65.65,0,0,0,1,1.53v15a.65.65,0,0,0,.64.65H25.4A.64.64,0,0,0,26,16.5v-15A.63.63,0,0,0,25.4.88ZM7.13,8.31l-.08-.17h0a.39.39,0,0,1-.39.39H5.5a.39.39,0,0,1-.37-.24L5,8H4.36l-.12.29a.38.38,0,0,1-.36.24H3.26a.38.38,0,0,1-.33-.17A.39.39,0,0,1,2.9,8l1-2.38a.38.38,0,0,1,.36-.24h.85a.39.39,0,0,1,.36.24l.21.5V5.77a.4.4,0,0,1,.4-.4H7a.41.41,0,0,1,.36.23l.37.81.34-.8a.38.38,0,0,1,.36-.24h.95a.38.38,0,0,1,.21.07.44.44,0,0,1,.22-.07h1.9a.31.31,0,0,1,.19.06.36.36,0,0,1,.2-.06h1.31a1.64,1.64,0,0,1,.89.17s0,0,.07,0a.39.39,0,0,1,.35-.22h.58a.38.38,0,0,1,.38.33,1.6,1.6,0,0,1,1.08-.33h.55a.4.4,0,0,1,.23.08.41.41,0,0,1,.24-.08h.85a.38.38,0,0,1,.36.24l.21.49V5.77a.4.4,0,0,1,.39-.4h.87a.39.39,0,0,1,.34.19L21.1,6V5.77a.4.4,0,0,1,.39-.4h.59a.4.4,0,0,1,.39.4V8.15a.4.4,0,0,1-.39.4h-.81a.39.39,0,0,1-.34-.19l-.35-.58v.38a.39.39,0,0,1-.4.39H19a.38.38,0,0,1-.36-.24L18.54,8h-.66l-.11.28a.4.4,0,0,1-.37.25h-.66a1.63,1.63,0,0,1-1-.31.39.39,0,0,1-.38.31h-.58a.27.27,0,0,1-.18-.05.35.35,0,0,1-.18.05h-.57a.4.4,0,0,1-.4-.39V7.69h-.33v.48a.38.38,0,0,1-.39.39h-.57a.34.34,0,0,1-.2-.06.31.31,0,0,1-.19.06H9.84a.44.44,0,0,1-.22-.07.38.38,0,0,1-.21.07H8.82a.39.39,0,0,1-.4-.39h0l-.07.17A.4.4,0,0,1,8,8.55h-.5A.41.41,0,0,1,7.13,8.31Zm15.72,4.34H21.74a.4.4,0,0,1-.36-.24,1.38,1.38,0,0,1-.85.24H19.42a.43.43,0,0,1-.17,0,.53.53,0,0,1-.17,0H17.17a.47.47,0,0,1-.17,0,.47.47,0,0,1-.17,0h-.58a.39.39,0,0,1-.39-.4v-.47h-.33v.48a.4.4,0,0,1-.4.4h-.57a.4.4,0,0,1-.4-.4v-.6a1.65,1.65,0,0,1-.86.2H13v.41a.39.39,0,0,1-.39.39h-1.1a.37.37,0,0,1-.3-.13l-.41-.47-.44.48a.37.37,0,0,1-.29.12H7.8a.4.4,0,0,1-.4-.4V9.87a.4.4,0,0,1,.4-.4h2.29a.39.39,0,0,1,.29.13l.42.46.43-.46a.39.39,0,0,1,.29-.13h1.82a1.58,1.58,0,0,1,.88.22.38.38,0,0,1,.34-.22h1.32a1.87,1.87,0,0,1,.87.16l.08.06a.38.38,0,0,1,.34-.22h1.9a.4.4,0,0,1,.34.21,1.31,1.31,0,0,1,.75-.21H21.3a.38.38,0,0,1,.37.27,1.26,1.26,0,0,1,.82-.27h1.14a.39.39,0,0,1,.39.4v.51a.4.4,0,0,1-.18.33h0a1.07,1.07,0,0,1,.28.78C24.14,12.22,23.66,12.65,22.85,12.65Z"/><path class="b" d="M14,7.09a.68.68,0,0,0,.39-.64A.55.55,0,0,0,14,5.93a1.23,1.23,0,0,0-.69-.1L12,5.86l.06,2.39.57,0,0-.86.61,0a.55.55,0,0,1,.42.09.82.82,0,0,1,.1.47v.3l.57,0V7.72a.65.65,0,0,0-.1-.43A.67.67,0,0,0,14,7.09ZM13.6,6.8a.5.5,0,0,1-.28.06l-.69,0,0-.53.7,0a.61.61,0,0,1,.28,0,.21.21,0,0,1,.12.2A.25.25,0,0,1,13.6,6.8Z"/><path class="b" d="M15.33,5.77h-.58V8.15h.58Z"/><path class="b" d="M21.49,5.77V7.43l-1-1.66h-.87V8l-1-2.26H17.8L17,7.64h-.26a.5.5,0,0,1-.39-.12A.8.8,0,0,1,16.19,7a.83.83,0,0,1,.16-.54.57.57,0,0,1,.44-.14h.55V5.77h-.55a1.21,1.21,0,0,0-.87.27,1.27,1.27,0,0,0-.31.94,1.22,1.22,0,0,0,.31.91,1.21,1.21,0,0,0,.83.26h.66l.21-.53h1.19l.22.53h1.16V6.36l1.08,1.79h.81V5.77ZM17.82,7.12l.39-1,.4,1Z"/><path class="b" d="M19.07,10.37v-.5h-1.9v2.38h1.9v-.49H17.74v-.47H19V10.8h-1.3v-.43Z"/><path class="b" d="M13.33,9.87H11.51l-.72.79-.7-.79H7.79v2.39h2.26l.73-.79.7.79h1.11v-.8h.71c.5,0,1-.14,1-.8S13.79,9.87,13.33,9.87ZM9.77,11.76H8.37v-.47H9.62V10.8H8.37v-.44H9.8l.62.7ZM12,12l-.87-1,.87-.94ZM13.32,11h-.73v-.61h.74c.2,0,.35.09.35.3S13.55,11,13.32,11Z"/><path class="b" d="M16.45,11.15a.67.67,0,0,0,.41-.64.57.57,0,0,0-.3-.53,1.52,1.52,0,0,0-.68-.11H14.56v2.39h.58v-.87h.61c.2,0,.33,0,.41.11a.67.67,0,0,1,.1.46v.3h.57v-.47a.71.71,0,0,0-.09-.44A.65.65,0,0,0,16.45,11.15Zm-.34-.3a.5.5,0,0,1-.28.05h-.69v-.54h.7a.57.57,0,0,1,.27.05.21.21,0,0,1,.12.21A.25.25,0,0,1,16.11,10.85Z"/><path class="b" d="M21.25,11a.93.93,0,0,0-.65-.19h-.31a.65.65,0,0,1-.22,0,.2.2,0,0,1,0-.35.36.36,0,0,1,.22,0H21.3V9.87H20.16c-.6,0-.82.36-.82.71,0,.76.67.72,1.2.74a.38.38,0,0,1,.21,0,.22.22,0,0,1,.07.16.2.2,0,0,1-.07.15.3.3,0,0,1-.23.06h-1.1v.51h1.11c.57,0,.89-.24.89-.75A.66.66,0,0,0,21.25,11Z"/><path class="b" d="M8.45,5.77,7.77,7.39,7,5.77H6.09V8l-1-2.26H4.28l-1,2.38h.61l.23-.53H5.28l.22.53H6.66V6.28l.83,1.87H8l.82-1.86V8.15H9.4V5.77ZM4.3,7.12l.38-1,.39,1Z"/><path class="b" d="M11.73,6.27v-.5H9.83V8.15h1.9V7.66H10.4V7.18h1.3V6.69H10.4V6.27Z"/><path class="b" d="M23.58,11a.94.94,0,0,0-.66-.19h-.3a.65.65,0,0,1-.22,0,.18.18,0,0,1-.13-.18.18.18,0,0,1,.09-.17.35.35,0,0,1,.22,0h1.05V9.87H22.48a.71.71,0,0,0-.81.71c0,.76.67.72,1.2.74a.38.38,0,0,1,.21,0,.21.21,0,0,1,.06.16.19.19,0,0,1-.06.15.33.33,0,0,1-.24.06H21.75v.51h1.11c.57,0,.89-.24.89-.75A.66.66,0,0,0,23.58,11Z"/><rect class="c" x="0.5" y="0.5" width="26" height="17" rx="1.5"/></svg>