<svg width="280" height="207" viewBox="0 0 280 207" fill="none" xmlns="http://www.w3.org/2000/svg">
<path d="M141 0C74.1735 0 20 54.1735 20 121C20 132.44 21.5877 143.51 24.5547 154H257.445C260.412 143.51 262 132.44 262 121C262 54.1735 207.826 0 141 0Z" fill="#F5F5F5"/>
<path fill-rule="evenodd" clip-rule="evenodd" d="M54.5 52C55.0861 52 55.6056 52.3624 55.7867 52.8978L56.698 55.5911H59.647C60.2331 55.5911 60.7526 55.9535 60.9337 56.4888C61.1148 57.0241 60.9164 57.6106 60.4422 57.9414L58.0565 59.606L58.9677 62.2993C59.1489 62.8346 58.9504 63.421 58.4762 63.7519C58.002 64.0827 57.3599 64.0827 56.8857 63.7519L54.5 62.0873L52.1143 63.7519C51.6401 64.0827 50.998 64.0827 50.5238 63.7519C50.0496 63.421 49.8511 62.8346 50.0323 62.2993L50.9435 59.606L48.5578 57.9414C48.0836 57.6106 47.8852 57.0241 48.0663 56.4888C48.2474 55.9535 48.7669 55.5911 49.353 55.5911H52.302L53.2133 52.8978C53.3944 52.3624 53.9139 52 54.5 52ZM53.285 56.8903H49.353L52.534 59.1097L51.319 62.7007L54.5 60.4814L57.681 62.7007L56.466 59.1097L59.647 56.8903H55.715L54.5 53.2993L53.285 56.8903Z" fill="#BDBDBD"/>
<path fill-rule="evenodd" clip-rule="evenodd" d="M54.0947 134.464C55.5081 134.464 56.6538 133.319 56.6538 131.905C56.6538 130.492 55.5081 129.346 54.0947 129.346C52.6813 129.346 51.5355 130.492 51.5355 131.905C51.5355 133.319 52.6813 134.464 54.0947 134.464ZM54.0947 136C56.3561 136 58.1893 134.167 58.1893 131.905C58.1893 129.644 56.3561 127.811 54.0947 127.811C51.8332 127.811 50 129.644 50 131.905C50 134.167 51.8332 136 54.0947 136Z" fill="#E0E0E0"/>
<path d="M217.626 69.7678C217.626 69.3437 217.282 69 216.858 69C216.434 69 216.09 69.3437 216.09 69.7678V74.3743H211.484C211.06 74.3743 210.716 74.718 210.716 75.142C210.716 75.566 211.06 75.9098 211.484 75.9098H216.09V80.5163C216.09 80.9403 216.434 81.284 216.858 81.284C217.282 81.284 217.626 80.9403 217.626 80.5163V75.9098H222.232C222.656 75.9098 223 75.566 223 75.142C223 74.718 222.656 74.3743 222.232 74.3743H217.626V69.7678Z" fill="#BDBDBD"/>
<path fill-rule="evenodd" clip-rule="evenodd" d="M174 18.5C175.381 18.5 176.5 17.3807 176.5 16C176.5 14.6193 175.381 13.5 174 13.5C172.619 13.5 171.5 14.6193 171.5 16C171.5 17.3807 172.619 18.5 174 18.5ZM174 20C176.209 20 178 18.2091 178 16C178 13.7909 176.209 12 174 12C171.791 12 170 13.7909 170 16C170 18.2091 171.791 20 174 20Z" fill="#E0E0E0"/>
<path fill-rule="evenodd" clip-rule="evenodd" d="M19 156.5C19 155.119 20.1193 154 21.5 154H260.5C261.881 154 263 155.119 263 156.5C263 157.881 261.881 159 260.5 159H21.5C20.1193 159 19 157.881 19 156.5Z" fill="#424242"/>
<path fill-rule="evenodd" clip-rule="evenodd" d="M0 156.5C0 155.119 1.11929 154 2.5 154H12.5C13.8807 154 15 155.119 15 156.5C15 157.881 13.8807 159 12.5 159H2.5C1.11929 159 0 157.881 0 156.5Z" fill="#424242"/>
<path fill-rule="evenodd" clip-rule="evenodd" d="M268 156.5C268 155.119 269.119 154 270.5 154L277.5 154C278.881 154 280 155.119 280 156.5C280 157.881 278.881 159 277.5 159L270.5 159C269.119 159 268 157.881 268 156.5Z" fill="#424242"/>
<path d="M171.653 159.149C150.363 176.299 119.202 172.943 102.052 151.653C84.9021 130.363 88.2581 99.2019 109.548 82.0521C130.838 64.9022 161.999 68.2583 179.149 89.548C196.299 110.838 192.943 141.999 171.653 159.149Z" fill="white"/>
<path fill-rule="evenodd" clip-rule="evenodd" d="M107.503 147.262C122.228 165.541 148.983 168.422 167.262 153.698C185.541 138.973 188.422 112.218 173.698 93.9393C158.973 75.6602 132.218 72.7788 113.939 87.5034C95.6601 102.228 92.7786 128.983 107.503 147.262ZM102.052 151.653C119.202 172.943 150.363 176.299 171.653 159.149C192.943 141.999 196.299 110.838 179.149 89.548C161.999 68.2583 130.838 64.9022 109.548 82.0521C88.2581 99.2019 84.9021 130.363 102.052 151.653Z" fill="#424242"/>
<path d="M180.357 169.903C185.117 166.068 192.085 166.819 195.92 171.579L209.882 188.912C213.717 193.673 212.967 200.641 208.206 204.475V204.475C203.446 208.31 196.478 207.56 192.643 202.799L178.68 185.467C174.845 180.706 175.596 173.738 180.357 169.903V169.903Z" fill="#BDBDBD"/>
<path fill-rule="evenodd" clip-rule="evenodd" d="M205.21 192.676L191.247 175.343C189.491 173.163 186.3 172.82 184.12 174.576C181.94 176.332 181.597 179.523 183.353 181.703L197.315 199.035C199.071 201.215 202.262 201.559 204.442 199.803C206.622 198.047 206.966 194.856 205.21 192.676ZM195.92 171.579C192.085 166.819 185.117 166.068 180.357 169.903C175.596 173.738 174.845 180.706 178.68 185.467L192.643 202.799C196.478 207.56 203.446 208.31 208.206 204.475C212.967 200.641 213.717 193.673 209.882 188.912L195.92 171.579Z" fill="#424242"/>
<path fill-rule="evenodd" clip-rule="evenodd" d="M180.799 176.082L167.625 159.728L173.855 154.709L187.029 171.063L180.799 176.082Z" fill="#424242"/>
<circle cx="126" cy="122" r="3" fill="#424242"/>
<circle cx="156" cy="122" r="3" fill="#424242"/>
<path fill-rule="evenodd" clip-rule="evenodd" d="M134.719 135.021C134.164 135.958 132.957 136.279 132.008 135.736C131.049 135.188 130.715 133.967 131.263 133.008L133 134C131.263 133.008 131.264 133.007 131.265 133.005L131.266 133.003L131.269 132.998L131.275 132.988L131.29 132.962C131.301 132.943 131.315 132.921 131.331 132.896C131.362 132.846 131.403 132.783 131.454 132.709C131.557 132.562 131.7 132.371 131.888 132.152C132.264 131.713 132.824 131.157 133.603 130.612C135.183 129.506 137.582 128.5 141 128.5C144.418 128.5 146.817 129.506 148.397 130.612C149.176 131.157 149.736 131.713 150.112 132.152C150.3 132.371 150.443 132.562 150.545 132.709C150.597 132.783 150.638 132.846 150.669 132.896C150.685 132.921 150.699 132.943 150.71 132.962L150.725 132.988L150.731 132.998L150.734 133.003L150.735 133.005C150.736 133.007 150.736 133.008 149 134L150.736 133.008C151.284 133.967 150.951 135.188 149.992 135.736C149.043 136.279 147.836 135.958 147.28 135.021C147.277 135.016 147.27 135.005 147.259 134.99C147.229 134.946 147.168 134.863 147.075 134.755C146.889 134.537 146.574 134.218 146.103 133.888C145.183 133.244 143.582 132.5 141 132.5C138.418 132.5 136.817 133.244 135.897 133.888C135.426 134.218 135.111 134.537 134.925 134.755C134.832 134.863 134.771 134.946 134.741 134.99C134.73 135.005 134.723 135.016 134.719 135.021Z" fill="#424242"/>
<path fill-rule="evenodd" clip-rule="evenodd" d="M110.547 65.5042C109.613 66.3047 108.207 66.1966 107.407 65.2627L99.031 55.4907C98.2305 54.5568 98.3387 53.1509 99.2725 52.3504C100.206 51.5499 101.612 51.6581 102.413 52.5919L110.789 62.3639C111.589 63.2978 111.481 64.7038 110.547 65.5042Z" fill="#424242"/>
<path fill-rule="evenodd" clip-rule="evenodd" d="M140.008 60.9927C138.778 60.9927 137.78 59.9956 137.78 58.7656L137.78 40.6703C137.78 39.4403 138.778 38.4432 140.008 38.4432C141.237 38.4432 142.235 39.4403 142.235 40.6703L142.235 58.7656C142.235 59.9956 141.237 60.9927 140.008 60.9927Z" fill="#424242"/>
<path fill-rule="evenodd" clip-rule="evenodd" d="M170.239 65.6342C169.139 65.0841 168.693 63.7463 169.243 62.6462L174.768 51.5972C175.318 50.4971 176.655 50.0511 177.756 50.6012C178.856 51.1513 179.302 52.489 178.752 53.5892L173.227 64.6382C172.677 65.7383 171.339 66.1842 170.239 65.6342Z" fill="#424242"/>
</svg>
