<?xml version="1.0" encoding="UTF-8"?>
<svg width="250px" height="41px" viewBox="0 0 250 41" version="1.1" xmlns="http://www.w3.org/2000/svg" xmlns:xlink="http://www.w3.org/1999/xlink">
    <title>logo-alpine-group</title>
    <defs>
        <polygon id="path-1" points="0.318705882 0.325529412 15.5363529 0.325529412 15.5363529 23.5294118 0.318705882 23.5294118"></polygon>
        <polygon id="path-3" points="0 0.106294118 30.9810777 0.106294118 30.9810777 27.9015882 0 27.9015882"></polygon>
    </defs>
    <g id="logo-alpine-group" stroke="none" stroke-width="1" fill="none" fill-rule="evenodd">
        <g id="Logo/Alpine-Group">
            <g id="Group-30">
                <g>
                    <g id="Group-29">
                        <path d="M74.6542941,26.6434118 L74.6542941,26.5775294 C73.0084118,25.7545882 71.4613529,25.3928235 70.2107647,25.3598824 C68.2360588,25.3269412 66.9525294,26.2487059 66.9525294,27.6969412 C66.9525294,28.9145882 68.0713529,29.7045882 69.7831176,29.7375294 C72.0213529,29.7375294 73.9631176,28.8157647 74.6542941,26.6434118 M78.8342941,32.0410588 L76.2672353,32.3704706 C75.9707647,32.4363529 75.7407647,32.2387059 75.6742941,31.9422353 L75.1813529,29.9345882 C73.7654706,31.7781176 71.3631176,32.6669412 68.8284118,32.634 C65.5372353,32.6004706 63.3978235,30.7575294 63.3978235,27.894 C63.3978235,24.4051765 66.5242941,22.7592941 69.9807647,22.7592941 C71.5601765,22.7592941 73.2060588,23.1545882 74.6213529,23.8787059 L74.6213529,23.0557647 C74.6213529,20.7187059 72.9101765,19.1387059 70.1448824,19.1387059 C68.5648824,19.1387059 67.2813529,19.534 65.899,20.2251765 C65.4713529,20.3898824 65.1748824,20.1922353 65.0437059,19.7645882 L64.4507647,17.9210588 C64.3519412,17.5922353 64.5166471,17.2957647 64.8460588,17.1310588 C66.6231176,16.3081176 68.5325294,15.8475294 70.6713529,15.8475294 C75.3454706,15.8475294 78.4066471,18.6451765 78.4066471,22.7922353 L78.4066471,27.4992941 L79.2295882,31.4487059 C79.2954706,31.7781176 79.1307647,32.0087059 78.8342941,32.0410588" id="Fill-1" fill="#353535"></path>
                        <path d="M89.6298824,31.9754118 C88.9716471,32.3701176 88.0828235,32.6336471 87.0628235,32.6336471 C84.6598824,32.6336471 82.9810588,31.2842353 82.9810588,28.3218824 L82.9810588,9.75835294 C82.9810588,9.46247059 83.1457647,9.29776471 83.4416471,9.26482353 L86.174,8.80364706 C86.6345882,8.73835294 86.8981176,9.03423529 86.8981176,9.52776471 L86.8981176,28.3218824 C86.8981176,29.046 87.2928235,29.5065882 87.8857647,29.5065882 C88.2145882,29.5065882 88.6098824,29.4407059 88.9716471,29.2765882 C89.3663529,29.1118824 89.5969412,29.3424706 89.6628235,29.6054118 L89.9592941,31.2512941 C90.0245882,31.5148235 89.8604706,31.8107059 89.6298824,31.9754118" id="Fill-3" fill="#353535"></path>
                        <path d="M105.889353,24.1419412 C105.889353,21.2454706 104.244059,19.3031176 101.709353,19.3031176 C99.7017059,19.3031176 97.957,20.5213529 96.8711176,22.4960588 L96.8711176,26.6760588 C97.957,28.4537059 99.7346471,29.4407647 101.775235,29.4407647 C104.244059,29.4407647 105.889353,27.3019412 105.889353,24.1419412 M109.707588,24.1419412 C109.707588,29.2437059 106.679353,32.6337059 102.137588,32.6337059 C99.8987647,32.6337059 98.1217059,31.8107647 96.8711176,30.3625294 L96.8711176,38.0642941 C96.8711176,38.3607647 96.7064118,38.5254706 96.4099412,38.5254706 L93.3822941,38.7231176 C93.0858235,38.7554706 92.8881765,38.5584118 92.8881765,38.2619412 L92.8881765,21.6407647 L92.2628824,16.8678235 C92.2299412,16.6048824 92.3946471,16.3742941 92.7240588,16.3084118 L95.6199412,15.9131176 C95.9164118,15.8807647 96.147,16.0778235 96.1799412,16.3742941 L96.5746471,19.2378235 C97.727,17.3284118 99.7999412,15.8472353 102.729353,15.8472353 C106.909941,15.8472353 109.707588,19.1719412 109.707588,24.1419412" id="Fill-5" fill="#353535"></path>
                        <path d="M113.459412,31.6792941 L113.459412,16.8016471 C113.459412,16.5057647 113.624118,16.3410588 113.92,16.3410588 L117.08,16.3410588 C117.375882,16.3410588 117.540588,16.5057647 117.540588,16.8016471 L117.540588,31.6792941 C117.540588,31.9751765 117.375882,32.1398824 117.08,32.1398824 L113.92,32.1398824 C113.624118,32.1398824 113.459412,31.9751765 113.459412,31.6792941 M112.932353,11.174 C112.932353,9.824 113.985882,8.93517647 115.532941,8.93517647 C117.014118,8.93517647 118.034118,9.824 118.034118,11.174 C118.034118,12.5887059 117.014118,13.4775294 115.532941,13.4775294 C113.985882,13.4775294 112.932353,12.5887059 112.932353,11.174" id="Fill-7" fill="#353535"></path>
                        <path d="M138.869,22.1342941 L138.869,31.6795882 C138.869,31.9754706 138.704294,32.1731176 138.408412,32.1731176 L135.248412,32.1731176 C134.951941,32.1731176 134.787824,31.9754706 134.787824,31.6795882 L134.787824,22.9901765 C134.787824,20.719 133.372529,19.2048824 131.266059,19.2048824 C129.554294,19.2048824 127.908412,20.1919412 126.690765,22.1672353 L126.690765,31.6795882 C126.690765,31.9754706 126.526059,32.1401765 126.263118,32.1401765 L123.103118,32.1401765 C122.806647,32.1401765 122.642529,31.9754706 122.642529,31.6795882 L122.642529,21.3442941 L121.918412,16.8348824 C121.885471,16.539 122.082529,16.3413529 122.379,16.3084118 L125.275471,15.9460588 C125.571941,15.9131176 125.769,16.0778235 125.834882,16.4072353 L126.329,19.0401765 C127.480765,16.9337059 129.751941,15.8472353 132.582529,15.8472353 C136.367824,15.8472353 138.869,18.349 138.869,22.1342941" id="Fill-9" fill="#353535"></path>
                        <path d="M150.618471,19.0402941 C148.281412,19.0402941 146.603176,20.5214706 146.109059,22.8585294 L154.633765,22.8585294 C154.667294,20.4555882 152.922588,19.0402941 150.618471,19.0402941 M157.991412,24.4708824 C157.958471,25.0632353 157.464941,25.4255882 156.773765,25.4255882 L146.109059,25.4255882 C146.537294,27.8279412 148.314353,29.3426471 150.849059,29.3426471 C152.494353,29.3426471 154.272,29.0461765 155.390824,28.5520588 C155.851412,28.355 156.246706,28.4538235 156.345529,28.8155882 L156.872588,30.5273529 C156.970824,30.9220588 156.905529,31.2514706 156.576118,31.4161765 C155.325529,32.1402941 153.153176,32.6338235 150.849059,32.6338235 C145.714353,32.6338235 142.291412,29.2761765 142.291412,24.2408824 C142.291412,19.205 145.582588,15.8473529 150.519647,15.8473529 C155.226706,15.8473529 158.386118,18.9085294 157.991412,24.4708824" id="Fill-11" fill="#353535"></path>
                        <g id="Group-15" transform="translate(168.235294, 16.165059)">
                            <mask id="mask-2" fill="white">
                                <use xlink:href="#path-1"></use>
                            </mask>
                            <g id="Clip-14"></g>
                            <path d="M3.23282353,5.93788235 C3.23282353,8.02435294 4.59988235,9.93141176 7.334,9.93141176 C10.104,9.93141176 11.4345882,8.02435294 11.4345882,5.93788235 C11.4345882,3.85141176 10.104,1.94435294 7.334,1.94435294 C4.59988235,1.94435294 3.23282353,3.85141176 3.23282353,5.93788235 M12.5857647,18.8531765 C12.5857647,15.9749412 7.72988235,16.2984706 4.52752941,15.5790588 C3.08870588,16.3708235 2.18988235,17.5578824 2.18988235,18.8890588 C2.18988235,20.6878824 3.844,21.9108235 7.18988235,21.9108235 C10.6075294,21.9108235 12.5857647,20.6514118 12.5857647,18.8531765 M0.318705882,19.1767059 C0.318705882,17.342 1.50576471,15.9749412 3.01694118,15.0755294 C2.26164706,14.6796471 1.75752941,14.1043529 1.75752941,13.2049412 C1.75752941,12.0172941 2.58458824,11.1543529 3.55635294,10.4708235 C1.97341176,9.39141176 1.28988235,7.59258824 1.28988235,5.93788235 C1.28988235,3.24023529 3.08870588,0.325529412 7.334,0.325529412 C8.26929412,0.325529412 9.09694118,0.469647059 9.81576471,0.721411765 L15.5363529,0.721411765 L15.5363529,2.41258824 L11.9745882,2.34023529 C12.9457647,3.312 13.3775294,4.67905882 13.3775294,5.93788235 C13.3775294,8.63611765 11.5787059,11.5137647 7.334,11.5137647 C6.29047059,11.5137647 5.42694118,11.3702353 4.70752941,11.0825882 C4.09635294,11.5137647 3.62870588,12.0537647 3.62870588,12.5931765 C3.62870588,15.3272941 14.6369412,12.7372941 14.6369412,18.7808235 C14.6369412,21.8025882 11.8304706,23.5296471 7.22576471,23.5296471 C2.33341176,23.5296471 0.318705882,21.5872941 0.318705882,19.1767059" id="Fill-13" fill="#353535" mask="url(#mask-2)"></path>
                        </g>
                        <path d="M184.957882,30.4491176 L187.799647,30.4491176 L187.799647,18.6132353 L184.957882,18.6132353 L184.957882,16.8867647 L189.850235,16.8867647 L189.850235,20.0885294 C191.001412,18.3614706 192.872,16.4908824 195.678471,16.4908824 L196.037882,16.4908824 L196.037882,18.5773529 L195.642,18.5773529 C193.087882,18.5773529 191.217882,19.9808824 189.886118,21.3473529 L189.886118,30.4491176 L193.052,30.4491176 L193.052,32.1402941 L184.957882,32.1402941 L184.957882,30.4491176 Z" id="Fill-16" fill="#353535"></path>
                        <path d="M209.959588,24.5133529 C209.959588,20.6639412 207.945471,18.2174706 204.599588,18.2174706 C201.290176,18.2174706 199.239,20.6639412 199.239,24.5133529 C199.239,28.3627647 201.290176,30.8451176 204.599588,30.8451176 C207.945471,30.8451176 209.959588,28.3627647 209.959588,24.5133529 M197.116647,24.5133529 C197.116647,19.5127647 200.246647,16.491 204.599588,16.491 C208.989,16.491 212.118412,19.5127647 212.118412,24.5133529 C212.118412,29.5498235 208.989,32.5357059 204.599588,32.5357059 C200.246647,32.5357059 197.116647,29.5498235 197.116647,24.5133529" id="Fill-18" fill="#353535"></path>
                        <path d="M216.577824,27.6070588 L216.577824,18.6135294 L213.699588,18.6135294 L213.699588,16.8864706 L218.627824,16.8864706 L218.627824,27.3194118 C218.627824,29.4058824 219.384294,30.8088235 221.541941,30.8088235 C223.664882,30.8088235 225.607824,29.4782353 227.118412,28.1464706 L227.118412,18.6135294 L224.168412,18.6135294 L224.168412,16.8864706 L229.169,16.8864706 L229.169,30.4494118 L232.047235,30.4494118 L232.047235,32.14 L227.154294,32.14 L227.154294,29.8376471 C225.391353,31.4205882 223.232529,32.5358824 221.038412,32.5358824 C218.304882,32.5358824 216.577824,30.8805882 216.577824,27.6070588" id="Fill-20" fill="#353535"></path>
                        <path d="M237.945588,20.6639412 L237.945588,28.7580588 C239.024412,29.8374706 240.499706,30.8451176 242.586176,30.8451176 C246.003824,30.8451176 247.730882,28.0751176 247.730882,24.4774706 C247.730882,21.2033529 246.255588,18.2174706 242.837941,18.2174706 C240.607353,18.2174706 239.132647,19.441 237.945588,20.6639412 L237.945588,20.6639412 Z M233.016765,37.5721765 L235.895,37.5721765 L235.895,18.6133529 L233.016765,18.6133529 L233.016765,16.8868824 L237.873235,16.8868824 L237.873235,19.081 C239.096765,17.6780588 240.859118,16.491 243.305588,16.491 C247.550294,16.491 249.852647,20.1245294 249.852647,24.4774706 C249.852647,28.9380588 247.406765,32.5357059 242.945588,32.5357059 C240.751471,32.5357059 239.168529,31.6721765 237.945588,30.4851176 L237.945588,37.5721765 L241.255,37.5721765 L241.255,39.2992353 L233.016765,39.2992353 L233.016765,37.5721765 Z" id="Fill-22" fill="#353535"></path>
                        <g id="Group-26" transform="translate(0.000000, 6.165059)">
                            <mask id="mask-4" fill="white">
                                <use xlink:href="#path-3"></use>
                            </mask>
                            <g id="Clip-25"></g>
                            <path d="M5.04058824,24.2268824 L26.0441176,24.2268824 L15.8923529,5.67335294 L5.04058824,24.2268824 Z M29.1441176,27.9015882 L1.83764706,27.9015882 C1.17941176,27.9015882 0.571176471,27.5492353 0.243529412,26.9786471 C-0.0841176471,26.4074706 -0.0811764706,25.7045294 0.251176471,25.1362941 L14.3594118,1.01570588 C14.6894118,0.452176471 15.2935294,0.106294118 15.9452941,0.106294118 C15.9541176,0.106294118 15.9629412,0.106294118 15.9717647,0.106882353 C16.6335294,0.116294118 17.2394118,0.481 17.5576471,1.06158824 L30.7552941,25.1821765 C31.0670588,25.7515882 31.0552941,26.4427647 30.7241176,27.001 C30.3935294,27.5592353 29.7929412,27.9015882 29.1441176,27.9015882 L29.1441176,27.9015882 Z" id="Fill-24" fill="#353535" mask="url(#mask-4)"></path>
                        </g>
                        <path d="M18.6937647,30.3919412 L46.7967059,30.3919412 L33.2137647,5.56723529 L18.6937647,30.3919412 Z M49.8961176,34.0666471 L15.4902353,34.0666471 C14.8325882,34.0666471 14.2243529,33.7142941 13.8967059,33.1437059 C13.5690588,32.5725294 13.572,31.8695882 13.9043529,31.3013529 L31.6808235,0.909588235 C32.0149412,0.337823529 32.6331765,-0.00511764706 33.2931765,0.000116054366 C33.9549412,0.0101764706 34.5608235,0.374882353 34.8784706,0.955470588 L51.5078824,31.3472353 C51.8196471,31.9166471 51.8072941,32.6078235 51.4767059,33.1660588 C51.1461176,33.7242941 50.5449412,34.0666471 49.8961176,34.0666471 L49.8961176,34.0666471 Z" id="Fill-27" fill="#353535"></path>
                    </g>
                </g>
            </g>
        </g>
    </g>
</svg>