<svg width="26" height="26" viewBox="0 0 26 26" fill="none" xmlns="http://www.w3.org/2000/svg">
<g id="error-icon">
<path id="Icon" fill-rule="evenodd" clip-rule="evenodd" d="M13.0001 24.7C14.5861 24.7 16.1027 24.388 17.5501 23.764C18.9887 23.1487 20.2324 22.3167 21.2811 21.268C22.3211 20.228 23.1531 18.9843 23.7771 17.537C24.3924 16.0983 24.7001 14.586 24.7001 13C24.7001 11.414 24.3924 9.89732 23.7771 8.44999C23.1531 7.01132 22.3211 5.76765 21.2811 4.71899C20.2324 3.67899 18.9887 2.85132 17.5501 2.23599C16.1027 1.61199 14.5861 1.29999 13.0001 1.29999C11.4141 1.29999 9.90174 1.61199 8.46307 2.23599C7.01574 2.85132 5.77207 3.67899 4.73207 4.71899C3.6834 5.76765 2.85141 7.01132 2.23607 8.44999C1.61207 9.89732 1.30007 11.414 1.30007 13C1.30007 14.586 1.61207 16.0983 2.23607 17.537C2.85141 18.9843 3.6834 20.228 4.73207 21.268C5.77207 22.3167 7.01574 23.1487 8.46307 23.764C9.90174 24.388 11.4141 24.7 13.0001 24.7ZM13.0002 16.25C12.6448 16.25 12.3415 16.3757 12.0902 16.627C11.8302 16.887 11.7002 17.1947 11.7002 17.55C11.7002 17.9053 11.8302 18.2087 12.0902 18.46C12.3415 18.72 12.6448 18.85 13.0002 18.85C13.3555 18.85 13.6632 18.72 13.9232 18.46C14.1745 18.2087 14.3002 17.9053 14.3002 17.55C14.3002 17.1947 14.1745 16.887 13.9232 16.627C13.6632 16.3757 13.3555 16.25 13.0002 16.25ZM13.0002 6.50001C12.7228 6.50001 12.4932 6.59534 12.3112 6.78601C12.1205 6.97668 12.0252 7.21501 12.0252 7.50101L12.0252 13.312C12.0252 13.598 12.1205 13.832 12.3112 14.014C12.4932 14.2047 12.7228 14.3 13.0002 14.3C13.2775 14.3 13.5115 14.2047 13.7022 14.014C13.8842 13.832 13.9752 13.598 13.9752 13.312L13.9752 7.48801C13.9752 7.20201 13.8842 6.96368 13.7022 6.77301C13.5115 6.59101 13.2775 6.50001 13.0002 6.50001Z" fill="#DA0000"/>
</g>
</svg>
