<svg width="25" height="16" viewBox="0 0 25 16" fill="none" xmlns="http://www.w3.org/2000/svg">
<g id="Logo">
<g id="Group 26">
<mask id="mask0_5422_312" style="mask-type:luminance" maskUnits="userSpaceOnUse" x="0" y="2" width="15" height="14">
<path id="Clip 25" fill-rule="evenodd" clip-rule="evenodd" d="M0.496826 2.77014H14.3665V15.0001H0.496826V2.77014Z" fill="white"/>
</mask>
<g mask="url(#mask0_5422_312)">
<path id="Fill 24" fill-rule="evenodd" clip-rule="evenodd" d="M2.75344 13.3832H12.1564L7.61159 5.21965L2.75344 13.3832ZM13.5442 15.0001H1.31958C1.0249 15.0001 0.752605 14.845 0.605923 14.594C0.459241 14.3427 0.460558 14.0334 0.609347 13.7833L6.92536 3.17028C7.0731 2.92233 7.34355 2.77014 7.63534 2.77014C7.63929 2.77014 7.64324 2.77014 7.64719 2.7704C7.94345 2.77454 8.21469 2.93501 8.35716 3.19047L14.2655 13.8035C14.4051 14.0541 14.3998 14.3582 14.2516 14.6038C14.1036 14.8494 13.8347 15.0001 13.5442 15.0001Z" fill="#353535"/>
</g>
</g>
<path id="Fill 27" fill-rule="evenodd" clip-rule="evenodd" d="M9.75344 13.8778H22.3347L16.2538 2.9549L9.75344 13.8778ZM23.7222 15.4946H8.31932C8.0249 15.4946 7.75261 15.3396 7.60592 15.0885C7.45924 14.8372 7.46056 14.5279 7.60935 14.2779L15.5676 0.905539C15.7171 0.653962 15.9939 0.503068 16.2894 0.505398C16.5857 0.509798 16.8569 0.670268 16.9991 0.925727L24.4438 14.2981C24.5834 14.5486 24.5779 14.8528 24.4299 15.0984C24.2819 15.344 24.0127 15.4946 23.7222 15.4946Z" fill="#353535"/>
</g>
</svg>
