<?xml version="1.0" encoding="UTF-8"?>
<svg width="425px" height="68px" viewBox="0 0 425 68" version="1.1" xmlns="http://www.w3.org/2000/svg" xmlns:xlink="http://www.w3.org/1999/xlink">
    <title>logo-group_white</title>
    <defs>
        <filter id="filter-1">
            <feColorMatrix in="SourceGraphic" type="matrix" values="0 0 0 0 1.000000 0 0 0 0 1.000000 0 0 0 0 1.000000 0 0 0 1.000000 0"></feColorMatrix>
        </filter>
        <polygon id="path-2" points="0.5418 0.5534 26.4118 0.5534 26.4118 40 0.5418 40"></polygon>
        <polygon id="path-4" points="0 0.1807 52.6678321 0.1807 52.6678321 47.4327 0 47.4327"></polygon>
    </defs>
    <g id="logo-group_white" stroke="none" stroke-width="1" fill="none" fill-rule="evenodd">
        <g filter="url(#filter-1)" id="Group-30">
            <g id="Group-29">
                <path d="M126.9123,45.2938 L126.9123,45.1818 C124.1143,43.7828 121.4843,43.1678 119.3583,43.1118 C116.0013,43.0558 113.8193,44.6228 113.8193,47.0848 C113.8193,49.1548 115.7213,50.4978 118.6313,50.5538 C122.4363,50.5538 125.7373,48.9868 126.9123,45.2938 M134.0183,54.4698 L129.6543,55.0298 C129.1503,55.1418 128.7593,54.8058 128.6463,54.3018 L127.8083,50.8888 C125.4013,54.0228 121.3173,55.5338 117.0083,55.4778 C111.4133,55.4208 107.7763,52.2878 107.7763,47.4198 C107.7763,41.4888 113.0913,38.6908 118.9673,38.6908 C121.6523,38.6908 124.4503,39.3628 126.8563,40.5938 L126.8563,39.1948 C126.8563,35.2218 123.9473,32.5358 119.2463,32.5358 C116.5603,32.5358 114.3783,33.2078 112.0283,34.3828 C111.3013,34.6628 110.7973,34.3268 110.5743,33.5998 L109.5663,30.4658 C109.3983,29.9068 109.6783,29.4028 110.2383,29.1228 C113.2593,27.7238 116.5053,26.9408 120.1413,26.9408 C128.0873,26.9408 133.2913,31.6968 133.2913,38.7468 L133.2913,46.7488 L134.6903,53.4628 C134.8023,54.0228 134.5223,54.4148 134.0183,54.4698" id="Fill-1" fill="#353535"></path>
                <path d="M152.3708,54.3582 C151.2518,55.0292 149.7408,55.4772 148.0068,55.4772 C143.9218,55.4772 141.0678,53.1832 141.0678,48.1472 L141.0678,16.5892 C141.0678,16.0862 141.3478,15.8062 141.8508,15.7502 L146.4958,14.9662 C147.2788,14.8552 147.7268,15.3582 147.7268,16.1972 L147.7268,48.1472 C147.7268,49.3782 148.3978,50.1612 149.4058,50.1612 C149.9648,50.1612 150.6368,50.0492 151.2518,49.7702 C151.9228,49.4902 152.3148,49.8822 152.4268,50.3292 L152.9308,53.1272 C153.0418,53.5752 152.7628,54.0782 152.3708,54.3582" id="Fill-3" fill="#353535"></path>
                <path d="M180.0119,41.0413 C180.0119,36.1173 177.2149,32.8153 172.9059,32.8153 C169.4929,32.8153 166.5269,34.8863 164.6809,38.2433 L164.6809,45.3493 C166.5269,48.3713 169.5489,50.0493 173.0179,50.0493 C177.2149,50.0493 180.0119,46.4133 180.0119,41.0413 M186.5029,41.0413 C186.5029,49.7143 181.3549,55.4773 173.6339,55.4773 C169.8279,55.4773 166.8069,54.0783 164.6809,51.6163 L164.6809,64.7093 C164.6809,65.2133 164.4009,65.4933 163.8969,65.4933 L158.7499,65.8293 C158.2459,65.8843 157.9099,65.5493 157.9099,65.0453 L157.9099,36.7893 L156.8469,28.6753 C156.7909,28.2283 157.0709,27.8363 157.6309,27.7243 L162.5539,27.0523 C163.0579,26.9973 163.4499,27.3323 163.5059,27.8363 L164.1769,32.7043 C166.1359,29.4583 169.6599,26.9403 174.6399,26.9403 C181.7469,26.9403 186.5029,32.5923 186.5029,41.0413" id="Fill-5" fill="#353535"></path>
                <path d="M192.881,53.8548 L192.881,28.5628 C192.881,28.0598 193.161,27.7798 193.664,27.7798 L199.036,27.7798 C199.539,27.7798 199.819,28.0598 199.819,28.5628 L199.819,53.8548 C199.819,54.3578 199.539,54.6378 199.036,54.6378 L193.664,54.6378 C193.161,54.6378 192.881,54.3578 192.881,53.8548 M191.985,18.9958 C191.985,16.7008 193.776,15.1898 196.406,15.1898 C198.924,15.1898 200.658,16.7008 200.658,18.9958 C200.658,21.4008 198.924,22.9118 196.406,22.9118 C193.776,22.9118 191.985,21.4008 191.985,18.9958" id="Fill-7" fill="#353535"></path>
                <path d="M236.0773,37.6283 L236.0773,53.8553 C236.0773,54.3583 235.7973,54.6943 235.2943,54.6943 L229.9223,54.6943 C229.4183,54.6943 229.1393,54.3583 229.1393,53.8553 L229.1393,39.0833 C229.1393,35.2223 226.7333,32.6483 223.1523,32.6483 C220.2423,32.6483 217.4443,34.3263 215.3743,37.6843 L215.3743,53.8553 C215.3743,54.3583 215.0943,54.6383 214.6473,54.6383 L209.2753,54.6383 C208.7713,54.6383 208.4923,54.3583 208.4923,53.8553 L208.4923,36.2853 L207.2613,28.6193 C207.2053,28.1163 207.5403,27.7803 208.0443,27.7243 L212.9683,27.1083 C213.4723,27.0523 213.8073,27.3323 213.9193,27.8923 L214.7593,32.3683 C216.7173,28.7873 220.5783,26.9403 225.3903,26.9403 C231.8253,26.9403 236.0773,31.1933 236.0773,37.6283" id="Fill-9" fill="#353535"></path>
                <path d="M256.0514,32.3685 C252.0784,32.3685 249.2254,34.8865 248.3854,38.8595 L262.8774,38.8595 C262.9344,34.7745 259.9684,32.3685 256.0514,32.3685 M268.5854,41.6005 C268.5294,42.6075 267.6904,43.2235 266.5154,43.2235 L248.3854,43.2235 C249.1134,47.3075 252.1344,49.8825 256.4434,49.8825 C259.2404,49.8825 262.2624,49.3785 264.1644,48.5385 C264.9474,48.2035 265.6194,48.3715 265.7874,48.9865 L266.6834,51.8965 C266.8504,52.5675 266.7394,53.1275 266.1794,53.4075 C264.0534,54.6385 260.3604,55.4775 256.4434,55.4775 C247.7144,55.4775 241.8954,49.7695 241.8954,41.2095 C241.8954,32.6485 247.4904,26.9405 255.8834,26.9405 C263.8854,26.9405 269.2564,32.1445 268.5854,41.6005" id="Fill-11" fill="#353535"></path>
                <g id="Group-15" transform="translate(286.000000, 27.480600)">
                    <mask id="mask-3" fill="white">
                        <use xlink:href="#path-2"></use>
                    </mask>
                    <g id="Clip-14"></g>
                    <path d="M5.4958,10.0944 C5.4958,13.6414 7.8198,16.8834 12.4678,16.8834 C17.1768,16.8834 19.4388,13.6414 19.4388,10.0944 C19.4388,6.5474 17.1768,3.3054 12.4678,3.3054 C7.8198,3.3054 5.4958,6.5474 5.4958,10.0944 M21.3958,32.0504 C21.3958,27.1574 13.1408,27.7074 7.6968,26.4844 C5.2508,27.8304 3.7228,29.8484 3.7228,32.1114 C3.7228,35.1694 6.5348,37.2484 12.2228,37.2484 C18.0328,37.2484 21.3958,35.1074 21.3958,32.0504 M0.5418,32.6004 C0.5418,29.4814 2.5598,27.1574 5.1288,25.6284 C3.8448,24.9554 2.9878,23.9774 2.9878,22.4484 C2.9878,20.4294 4.3938,18.9624 6.0458,17.8004 C3.3548,15.9654 2.1928,12.9074 2.1928,10.0944 C2.1928,5.5084 5.2508,0.5534 12.4678,0.5534 C14.0578,0.5534 15.4648,0.7984 16.6868,1.2264 L26.4118,1.2264 L26.4118,4.1014 L20.3568,3.9784 C22.0078,5.6304 22.7418,7.9544 22.7418,10.0944 C22.7418,14.6814 19.6838,19.5734 12.4678,19.5734 C10.6938,19.5734 9.2258,19.3294 8.0028,18.8404 C6.9638,19.5734 6.1688,20.4914 6.1688,21.4084 C6.1688,26.0564 24.8828,21.6534 24.8828,31.9274 C24.8828,37.0644 20.1118,40.0004 12.2838,40.0004 C3.9668,40.0004 0.5418,36.6984 0.5418,32.6004" id="Fill-13" fill="#353535" mask="url(#mask-3)"></path>
                </g>
                <path d="M314.4284,51.7635 L319.2594,51.7635 L319.2594,31.6425 L314.4284,31.6425 L314.4284,28.7075 L322.7454,28.7075 L322.7454,34.1505 C324.7024,31.2145 327.8824,28.0345 332.6534,28.0345 L333.2644,28.0345 L333.2644,31.5815 L332.5914,31.5815 C328.2494,31.5815 325.0704,33.9675 322.8064,36.2905 L322.8064,51.7635 L328.1884,51.7635 L328.1884,54.6385 L314.4284,54.6385 L314.4284,51.7635 Z" id="Fill-16" fill="#353535"></path>
                <path d="M356.9313,41.6727 C356.9313,35.1287 353.5073,30.9697 347.8193,30.9697 C342.1933,30.9697 338.7063,35.1287 338.7063,41.6727 C338.7063,48.2167 342.1933,52.4367 347.8193,52.4367 C353.5073,52.4367 356.9313,48.2167 356.9313,41.6727 M335.0983,41.6727 C335.0983,33.1717 340.4193,28.0347 347.8193,28.0347 C355.2813,28.0347 360.6013,33.1717 360.6013,41.6727 C360.6013,50.2347 355.2813,55.3107 347.8193,55.3107 C340.4193,55.3107 335.0983,50.2347 335.0983,41.6727" id="Fill-18" fill="#353535"></path>
                <path d="M368.1823,46.932 L368.1823,31.643 L363.2893,31.643 L363.2893,28.707 L371.6673,28.707 L371.6673,46.443 C371.6673,49.99 372.9533,52.375 376.6213,52.375 C380.2303,52.375 383.5333,50.113 386.1013,47.849 L386.1013,31.643 L381.0863,31.643 L381.0863,28.707 L389.5873,28.707 L389.5873,51.764 L394.4803,51.764 L394.4803,54.638 L386.1623,54.638 L386.1623,50.724 C383.1653,53.415 379.4953,55.311 375.7653,55.311 C371.1183,55.311 368.1823,52.497 368.1823,46.932" id="Fill-20" fill="#353535"></path>
                <path d="M404.5075,35.1287 L404.5075,48.8887 C406.3415,50.7237 408.8495,52.4367 412.3965,52.4367 C418.2065,52.4367 421.1425,47.7277 421.1425,41.6117 C421.1425,36.0457 418.6345,30.9697 412.8245,30.9697 C409.0325,30.9697 406.5255,33.0497 404.5075,35.1287 L404.5075,35.1287 Z M396.1285,63.8727 L401.0215,63.8727 L401.0215,31.6427 L396.1285,31.6427 L396.1285,28.7077 L404.3845,28.7077 L404.3845,32.4377 C406.4645,30.0527 409.4605,28.0347 413.6195,28.0347 C420.8355,28.0347 424.7495,34.2117 424.7495,41.6117 C424.7495,49.1947 420.5915,55.3107 413.0075,55.3107 C409.2775,55.3107 406.5865,53.8427 404.5075,51.8247 L404.5075,63.8727 L410.1335,63.8727 L410.1335,66.8087 L396.1285,66.8087 L396.1285,63.8727 Z" id="Fill-22" fill="#353535"></path>
                <g id="Group-26" transform="translate(0.000000, 10.480600)">
                    <mask id="mask-5" fill="white">
                        <use xlink:href="#path-4"></use>
                    </mask>
                    <g id="Clip-25"></g>
                    <path d="M8.569,41.1857 L44.275,41.1857 L27.017,9.6447 L8.569,41.1857 Z M49.545,47.4327 L3.124,47.4327 C2.005,47.4327 0.971,46.8337 0.414,45.8637 C-0.143,44.8927 -0.138,43.6977 0.427,42.7317 L24.411,1.7267 C24.972,0.7687 25.999,0.1807 27.107,0.1807 C27.122,0.1807 27.137,0.1807 27.152,0.1817 C28.277,0.1977 29.307,0.8177 29.848,1.8047 L52.284,42.8097 C52.814,43.7777 52.794,44.9527 52.231,45.9017 C51.669,46.8507 50.648,47.4327 49.545,47.4327 L49.545,47.4327 Z" id="Fill-24" fill="#353535" mask="url(#mask-5)"></path>
                </g>
                <path d="M31.7794,51.6663 L79.5544,51.6663 L56.4634,9.4643 L31.7794,51.6663 Z M84.8234,57.9133 L26.3334,57.9133 C25.2154,57.9133 24.1814,57.3143 23.6244,56.3443 C23.0674,55.3733 23.0724,54.1783 23.6374,53.2123 L53.8574,1.5463 C54.4254,0.5743 55.4764,-0.0087 56.5984,0.000197292422 C57.7234,0.0173 58.7534,0.6373 59.2934,1.6243 L87.5634,53.2903 C88.0934,54.2583 88.0724,55.4333 87.5104,56.3823 C86.9484,57.3313 85.9264,57.9133 84.8234,57.9133 L84.8234,57.9133 Z" id="Fill-27" fill="#353535"></path>
            </g>
        </g>
    </g>
</svg>