<svg width="26" height="26" viewBox="0 0 26 26" fill="none" xmlns="http://www.w3.org/2000/svg">
<g id="processing-icon">
<g id="Icon">
<path fill-rule="evenodd" clip-rule="evenodd" d="M13 24.7C14.586 24.7 16.1027 24.388 17.55 23.764C18.9887 23.1487 20.2324 22.3167 21.281 21.268C22.321 20.228 23.153 18.9843 23.7771 17.537C24.3924 16.0983 24.7001 14.586 24.7001 13C24.7001 11.414 24.3924 9.89732 23.7771 8.44999C23.153 7.01132 22.321 5.76765 21.281 4.71899C20.2324 3.67899 18.9887 2.85132 17.55 2.23599C16.1027 1.61199 14.586 1.29999 13 1.29999C11.414 1.29999 9.90172 1.61199 8.46305 2.23599C7.01572 2.85132 5.77205 3.67899 4.73205 4.71899C3.68338 5.76765 2.85138 7.01132 2.23605 8.44999C1.61205 9.89732 1.30005 11.414 1.30005 13C1.30005 14.586 1.61205 16.0983 2.23605 17.537C2.85138 18.9843 3.68338 20.228 4.73205 21.268C5.77205 22.3167 7.01572 23.1487 8.46305 23.764C9.90172 24.388 11.414 24.7 13 24.7Z" fill="#EAB24B"/>
<path d="M13.0189 8.47789C11.7729 8.47789 10.6459 8.98272 9.82937 9.80044C9.59523 10.0349 9.21534 10.0352 8.98084 9.80108C8.74635 9.56694 8.74607 9.18704 8.98021 8.95255C10.0126 7.91861 11.4415 7.27789 13.0189 7.27789C15.9418 7.27789 18.3515 9.47515 18.6864 12.308H19.4494C19.6804 12.308 19.8247 12.558 19.7092 12.758L18.386 15.05C18.2705 15.25 17.9818 15.25 17.8663 15.05L16.543 12.758C16.4276 12.558 16.5719 12.308 16.8028 12.308L17.4756 12.308C17.1489 10.14 15.278 8.47789 13.0189 8.47789Z" fill="white"/>
<path d="M16.4248 15.9995C15.6083 16.8173 14.4813 17.3221 13.2353 17.3221C11.0462 17.3221 9.22155 15.7614 8.81336 13.692H9.45131C9.68225 13.692 9.82659 13.442 9.71112 13.242L8.38783 10.95C8.27236 10.75 7.98368 10.75 7.86821 10.95L6.54491 13.242C6.42944 13.442 6.57378 13.692 6.80472 13.692H7.59505C8.01703 16.4276 10.3816 18.5221 13.2353 18.5221C14.8127 18.5221 16.2416 17.8814 17.274 16.8474C17.5081 16.6129 17.5078 16.233 17.2733 15.9989C17.0388 15.7648 16.6589 15.765 16.4248 15.9995Z" fill="white"/>
</g>
</g>
</svg>
