<svg width="26" height="26" viewBox="0 0 26 26" fill="none" xmlns="http://www.w3.org/2000/svg">
<g id="success-icon">
<path id="Icon" fill-rule="evenodd" clip-rule="evenodd" d="M8.45005 2.23599C9.89738 1.61199 11.4141 1.29999 13 1.29999C14.5861 1.29999 16.0984 1.61199 17.5371 2.23599C18.9844 2.85132 20.228 3.68332 21.268 4.73199C22.3167 5.77199 23.1487 7.01565 23.764 8.46299C24.3881 9.90165 24.7001 11.414 24.7001 13C24.7001 14.586 24.3881 16.1027 23.764 17.55C23.1487 18.9887 22.3167 20.2323 21.268 21.281C20.228 22.321 18.9844 23.1487 17.5371 23.764C16.0984 24.388 14.5861 24.7 13 24.7C11.4141 24.7 9.89738 24.388 8.45005 23.764C7.01138 23.1487 5.76772 22.321 4.71905 21.281C3.67905 20.2323 2.84705 18.9887 2.22305 17.55C1.60772 16.1027 1.30005 14.586 1.30005 13C1.30005 11.414 1.60772 9.90165 2.22305 8.46299C2.84705 7.01565 3.67905 5.77199 4.71905 4.73199C5.76772 3.68332 7.01138 2.85132 8.45005 2.23599ZM17.3698 9.00041C17.1114 9.00795 16.8661 9.11579 16.6858 9.30101C16.4999 9.48683 15.45 10.5652 14.2237 11.8246L13.4417 12.6278C12.693 13.3967 12.4387 13.6672 12.2476 13.8705C12.1208 14.0053 12.0217 14.1106 11.8247 14.3122L9.64838 12.2389C9.44077 12.0582 9.16743 11.9716 8.89355 11.9996C8.61976 12.0277 8.36983 12.168 8.2031 12.3871C8.03647 12.6062 7.96798 12.8846 8.01401 13.1559C8.06004 13.4273 8.21648 13.6675 8.44603 13.8194L11.3219 16.4264C11.5134 16.5721 11.7513 16.6435 11.9914 16.6273C12.2315 16.6111 12.4576 16.5084 12.6279 16.3383C12.7144 16.2518 12.8398 16.121 13.0491 15.9027C13.3827 15.5548 13.9295 14.9845 14.872 14.0165C15.5283 13.3425 16.1934 12.6587 16.7481 12.0885C17.4897 11.326 18.034 10.7665 18.0952 10.7051C18.2868 10.5171 18.3943 10.2599 18.3935 9.99155C18.3926 9.72325 18.2834 9.46662 18.0906 9.27993C17.8979 9.09333 17.638 8.99271 17.3698 9.00041Z" fill="#10B981"/>
</g>
</svg>
