<svg xmlns="http://www.w3.org/2000/svg" xmlns:xlink="http://www.w3.org/1999/xlink">
    <symbol width="24" height="24" viewBox="0 0 25 25" id="heart">
        <path
            d="M14.2886 21.2977C13.2907 22.3377 11.668 22.3377 10.6697 21.2977C7.67468 18.0952 1.93427 11.9804 1.93427 11.9384C-0.644756 9.23457 -0.644756 4.78367 1.93427 2.07986C3.18218 0.748749 4.84607 0.0415973 6.63475 0.0415973C8.42343 0.0415973 10.0873 0.748749 11.3352 2.07986L11.8344 2.70382C12.1672 3.11979 12.8327 3.11979 13.1655 2.70382L13.5815 2.16305C13.6231 2.12146 13.6231 2.12146 13.6647 2.07986C14.9546 0.707152 16.6185 0 18.3651 0C20.1542 0 21.8181 0.707152 23.066 2.03826C25.6447 4.74208 25.6447 9.19297 23.066 11.8968C23.024 11.98 17.3252 18.0948 14.2886 21.2977Z"
        />
    </symbol>
</svg>
