<svg id="globe-icon" viewBox="0 0 20 20" xmlns="http://www.w3.org/2000/svg">
    &lt;title>Globe icon&lt;/title>
    <path fill-rule="evenodd" clip-rule="evenodd" d="M10 1C11.6267 1 13.13 1.40333 14.51 2.21C15.89 3.01667 16.9833 4.11 17.79 5.49C18.5967 6.87 19 8.37333 19 10C19 11.6267 18.5967 13.13 17.79 14.51C16.9833 15.89 15.89 16.9833 14.51 17.79C13.13 18.5967 11.6267 19 10 19C8.37333 19 6.87 18.5967 5.49 17.79C4.11 16.9833 3.01667 15.89 2.21 14.51C1.40333 13.13 1 11.6267 1 10C1 8.37333 1.40333 6.87 2.21 5.49C3.01667 4.11 4.11 3.01667 5.49 2.21C6.87 1.40333 8.37333 1 10 1ZM9.01 2.56C7.87667 2.71333 6.83667 3.1 5.89 3.72C4.95 4.34 4.18333 5.13333 3.59 6.1C3.00333 7.06 2.65333 8.11 2.54 9.25H6.52C6.59333 8.01667 6.84333 6.82667 7.27 5.68C7.70333 4.52667 8.28333 3.48667 9.01 2.56ZM17.46 9.25C17.3467 8.11667 16.9933 7.07 16.4 6.11C15.8133 5.14333 15.05 4.35 14.11 3.73C13.17 3.11 12.1367 2.72333 11.01 2.57C11.73 3.49 12.3033 4.52333 12.73 5.67C13.1567 6.81667 13.4067 8.01 13.48 9.25H17.46ZM11.97 9.25C11.8967 8.19667 11.6867 7.16667 11.34 6.16C11 5.14667 10.5533 4.26 10 3.5C9.44667 4.26 8.99667 5.14667 8.65 6.16C8.31 7.16667 8.10333 8.19667 8.03 9.25H11.97ZM2.54 10.75C2.65333 11.89 3.00333 12.9433 3.59 13.91C4.18333 14.87 4.95 15.66 5.89 16.28C6.83667 16.9 7.87333 17.2833 9 17.43C8.28 16.5033 7.70333 15.4667 7.27 14.32C6.84333 13.1733 6.59333 11.9833 6.52 10.75H2.54ZM8.03 10.75C8.10333 11.8033 8.31 12.8367 8.65 13.85C8.99667 14.8567 9.44667 15.74 10 16.5C10.5533 15.74 11 14.8567 11.34 13.85C11.6867 12.8367 11.8967 11.8033 11.97 10.75H8.03ZM11.02 17.43C12.1467 17.2767 13.1767 16.89 14.11 16.27C15.05 15.65 15.8133 14.86 16.4 13.9C16.9933 12.9333 17.3467 11.8833 17.46 10.75H13.48C13.4067 11.99 13.1567 13.1833 12.73 14.33C12.31 15.4767 11.74 16.51 11.02 17.43Z"/>
</svg>