<svg width="0" height="0" class="hidden">
    <symbol xmlns="http://www.w3.org/2000/svg" viewBox="0 0 30 30" id="facebook">
        <path fill-rule="evenodd" clip-rule="evenodd" d="M14.9427 29.9999L14.9561 29.9999H14.9515L14.9427 29.9999ZM15.0485 29.9999H15.0439L15.0573 29.9999L15.0485 29.9999ZM14.8969 29.9996L14.9113 29.9997H14.903L14.8969 29.9996ZM15.097 29.9997H15.0887L15.1031 29.9996L15.097 29.9997ZM14.8527 29.9993L14.8624 29.9994L14.8546 29.9993H14.8527ZM15.1454 29.9993L15.1376 29.9994L15.1473 29.9993H15.1454ZM15.1938 29.9988L15.1904 29.9988L15.2034 29.9987L15.1938 29.9988ZM14.7966 29.9987L14.8096 29.9988L14.8062 29.9988L14.7966 29.9987ZM15.2421 29.9981L15.2342 29.9982L15.2503 29.9979L15.2421 29.9981ZM14.7497 29.9979L14.7658 29.9982L14.7579 29.9981L14.7497 29.9979ZM15.2904 29.9972L15.2797 29.9974L15.2946 29.9971L15.2904 29.9972ZM14.7054 29.9971L14.7203 29.9974L14.7096 29.9972L14.7054 29.9971ZM14.6505 29.996L14.6637 29.9963L14.6613 29.9963L14.6505 29.996ZM15.3387 29.9963L15.3363 29.9963L15.3495 29.996L15.3387 29.9963ZM14.6023 29.9948L14.6204 29.9953L14.6131 29.9951L14.6023 29.9948ZM15.3869 29.9951L15.3796 29.9953L15.3977 29.9948L15.3869 29.9951ZM15.4351 29.9938L15.4233 29.9941L15.4419 29.9936L15.4351 29.9938ZM14.5581 29.9936L14.5767 29.9941L14.5649 29.9938L14.5581 29.9936ZM14.516 29.9923L14.5291 29.9927L14.5167 29.9923L14.5054 29.992L14.516 29.9923ZM15.4833 29.9923L15.4709 29.9927L15.484 29.9923L15.4946 29.992L15.4833 29.9923ZM15.5314 29.9907L15.5248 29.991L15.545 29.9903L15.5314 29.9907ZM14.455 29.9903L14.4752 29.991L14.4686 29.9907L14.455 29.9903ZM14.4111 29.9886L14.4323 29.9894L14.4205 29.989L14.4111 29.9886ZM15.5795 29.989L15.5677 29.9894L15.5889 29.9886L15.5795 29.989ZM14.368 29.9869L14.3888 29.9878L14.3725 29.9871L14.368 29.9869ZM15.6275 29.9871L15.6112 29.9878L15.632 29.9869L15.6275 29.9871ZM14.3077 29.9842L14.3299 29.9852L14.3245 29.9851L14.3077 29.9842ZM15.6755 29.9851L15.6701 29.9852L15.6923 29.9842L15.6755 29.9851ZM14.2644 29.9822L14.2874 29.9833L14.2765 29.9828L14.2644 29.9822ZM15.7235 29.9828L15.7126 29.9833L15.7356 29.9822L15.7235 29.9828ZM14.2217 29.9801L14.245 29.9812L14.2286 29.9805L14.2217 29.9801ZM15.7714 29.9805L15.755 29.9812L15.7783 29.9801L15.7714 29.9805ZM15.8193 29.978L15.7981 29.9791L15.8169 29.9781L15.8391 29.9769L15.8193 29.978ZM14.1831 29.9781L14.2019 29.9791L14.1807 29.978L14.1609 29.9769L14.1831 29.9781ZM15.8671 29.9753L15.8578 29.9758L15.8815 29.9745L15.8671 29.9753ZM14.1185 29.9745L14.1422 29.9758L14.1329 29.9753L14.1185 29.9745ZM14.0762 29.9719L14.0999 29.9733L14.0851 29.9725L14.0762 29.9719ZM15.9149 29.9725L15.9001 29.9733L15.9238 29.9719L15.9149 29.9725ZM14.0358 29.9694L14.0572 29.9708L14.0372 29.9695L14.0172 29.9682L14.0358 29.9694ZM15.9628 29.9695L15.9428 29.9708L15.9642 29.9694L15.9828 29.9682L15.9628 29.9695ZM16.0104 29.9664L16.0033 29.9669L16.026 29.9654L16.0104 29.9664ZM13.974 29.9654L13.9967 29.9669L13.9896 29.9664L13.974 29.9654ZM13.9318 29.9624L13.954 29.964L13.9419 29.9632L13.9318 29.9624ZM16.0581 29.9632L16.046 29.964L16.0682 29.9624L16.0581 29.9632ZM13.8896 29.9595L13.9101 29.9609L13.8942 29.9598L13.8896 29.9595ZM16.1058 29.9598L16.0899 29.9609L16.1104 29.9595L16.1058 29.9598ZM13.833 29.9552L13.8509 29.9565L13.8466 29.9562L13.833 29.9552ZM16.1534 29.9562L16.1491 29.9565L16.167 29.9552L16.1534 29.9562ZM16.2009 29.9525L16.1924 29.9532L16.2106 29.9517L16.2009 29.9525ZM13.7894 29.9517L13.8076 29.9532L13.7991 29.9525L13.7894 29.9517ZM13.7469 29.9483L13.7624 29.9496L13.7515 29.9487L13.7469 29.9483ZM16.2485 29.9487L16.2376 29.9496L16.2531 29.9483L16.2485 29.9487ZM13.7002 29.9443L13.7048 29.9447L13.704 29.9447L13.7002 29.9443ZM16.296 29.9447L16.2952 29.9447L16.2998 29.9443L16.296 29.9447ZM16.3434 29.9405L16.3392 29.9409L16.3498 29.9399L16.3434 29.9405ZM13.6502 29.9399L13.6608 29.9409L13.6566 29.9405L13.6502 29.9399ZM13.6062 29.936L13.6141 29.9367L13.6092 29.9362L13.6062 29.936ZM16.3908 29.9362L16.3859 29.9367L16.3938 29.936L16.3908 29.9362ZM12.6562 29.8176C5.48912 28.6911 0 22.4815 0 15C0 6.72129 6.72129 0 15 0C23.2787 0 30 6.72129 30 15C30 22.4815 24.5109 28.6911 17.3438 29.8176V19.3359H20.8389L21.5039 15H17.3438V12.1863C17.3438 11 17.9249 9.84375 19.7882 9.84375H21.6797V6.15234C21.6797 6.15234 19.9631 5.85938 18.322 5.85938C14.8956 5.85938 12.6562 7.93594 12.6562 11.6953V15H8.84766V19.3359H12.6562V29.8176Z"/>
    </symbol>
    <symbol xmlns="http://www.w3.org/2000/svg" viewBox="0 0 30 30" id="facebookMessenger">
        <path fill-rule="evenodd" clip-rule="evenodd" d="M15 0C23.2787 0 30 6.72129 30 15C30 23.2787 23.2787 30 15 30C6.72129 30 0 23.2787 0 15C0 6.72129 6.72129 0 15 0ZM15 6.14033C9.80086 6.14033 5.77148 9.94875 5.77148 15.0922C5.77148 17.7828 6.87445 20.1076 8.67006 21.7137C8.82041 21.8493 8.91141 22.0368 8.91885 22.2392L8.969 23.8806C8.9857 24.4043 9.526 24.7441 10.0051 24.5343L11.8359 23.7265C11.9919 23.6579 12.1646 23.6449 12.328 23.6894C13.1691 23.9215 14.066 24.0441 15 24.0441C20.1991 24.0441 24.2285 20.2356 24.2285 15.0922C24.2285 9.94875 20.1991 6.14033 15 6.14033ZM9.4592 17.7104L12.1702 13.4099C12.6009 12.7266 13.5257 12.5558 14.1718 13.0404L16.3276 14.6577C16.5263 14.8063 16.7974 14.8044 16.9942 14.6559L19.9058 12.4462C20.2938 12.151 20.8027 12.6171 20.5408 13.0293L17.8317 17.3279C17.4009 18.0112 16.4762 18.182 15.83 17.6974L13.6743 16.0801C13.4755 15.9315 13.2045 15.9333 13.0076 16.0819L10.0942 18.2934C9.70617 18.5886 9.19734 18.1226 9.4592 17.7104Z"/>
    </symbol>
    <symbol xmlns="http://www.w3.org/2000/svg" viewBox="0 0 30 30" id="general">
        <path fill-rule="evenodd" clip-rule="evenodd" d="M15 0C6.71573 0 0 6.71573 0 15C0 23.2843 6.71573 30 15 30C23.2843 30 30 23.2843 30 15C30 6.71573 23.2843 0 15 0ZM14.6885 20.3308L15.4154 20.4346C15.7269 20.4692 15.9 20.8846 15.6577 21.0577L14.7923 21.9231C12.8885 23.8269 9.77308 23.7923 7.93846 21.7846C6.17308 19.9154 6.31154 16.9385 8.14615 15.1038L10.6731 12.5769C11.2375 12.041 11.9203 11.6458 12.6661 11.4232C13.4119 11.2007 14.1996 11.1572 14.9654 11.2962C15.9005 11.4493 16.7619 11.8982 17.4231 12.5769L17.9077 13.1308C18.0115 13.3038 18.0115 13.5115 17.8731 13.65L16.9038 14.6192C16.7308 14.8269 16.4192 14.7923 16.2808 14.55L15.9346 14.1C15.6015 13.7767 15.1916 13.5435 14.7434 13.4223C14.2953 13.3012 13.8237 13.2962 13.3731 13.4077C12.9577 13.5462 12.5423 13.7538 12.1962 14.1L9.56538 16.7308C9.31005 16.9892 9.11025 17.2972 8.97826 17.6356C8.84627 17.9741 8.78487 18.336 8.79784 18.6991C8.8108 19.0622 8.89786 19.4188 9.05367 19.747C9.20947 20.0752 9.43073 20.3681 9.70385 20.6077C10.232 21.035 10.9003 21.2505 11.5786 21.2121C12.2568 21.1737 12.8965 20.8842 13.3731 20.4L13.5462 20.2269C13.65 20.1231 13.8231 20.0885 13.9615 20.1231L14.6885 20.3308ZM15.1038 8.21538C16.9038 6.38077 19.8808 6.24231 21.7846 8.00769C23.7577 9.84231 23.8269 12.9577 21.8885 14.8615L19.2577 17.4923C18.6933 18.0282 18.0105 18.4235 17.2647 18.646C16.5189 18.8685 15.7312 18.9121 14.9654 18.7731C14.0442 18.6085 13.1972 18.1608 12.5423 17.4923L12.0577 16.9385C11.9538 16.7654 11.9538 16.5577 12.0923 16.4192L13.0615 15.45C13.2346 15.2423 13.5462 15.2769 13.6846 15.5192L14.0308 15.9692C14.3639 16.2926 14.7738 16.5258 15.2219 16.6469C15.6701 16.768 16.1417 16.773 16.5923 16.6615C17.0335 16.5263 17.4366 16.2891 17.7692 15.9692L20.4 13.3385C21.4731 12.2654 21.4385 10.4654 20.2615 9.46154C19.2231 8.56154 17.5962 8.66538 16.5923 9.66923L16.4192 9.84231C16.3154 9.94615 16.1423 9.98077 16.0038 9.94615C15.5192 9.80769 15.0346 9.70385 14.55 9.66923C14.2385 9.63461 14.0654 9.21923 14.3077 8.97692L15.1038 8.21538Z"/>
    </symbol>
    <symbol xmlns="http://www.w3.org/2000/svg" viewBox="0 0 30 30" id="instagram">
        <path fill-rule="evenodd" clip-rule="evenodd" d="M15 0C23.2787 0 30 6.72129 30 15C30 23.2787 23.2787 30 15 30C6.72129 30 0 23.2787 0 15C0 6.72129 6.72129 0 15 0ZM15 5.625C12.4539 5.625 12.1346 5.63578 11.1347 5.68143C10.1368 5.72695 9.45533 5.88545 8.85896 6.11719C8.2425 6.35678 7.71967 6.67734 7.19848 7.19854C6.67728 7.71973 6.35672 8.24256 6.11713 8.85902C5.88539 9.45533 5.72695 10.1368 5.68137 11.1347C5.63578 12.1346 5.625 12.4539 5.625 15C5.625 17.5461 5.63578 17.8654 5.68137 18.8653C5.72695 19.8632 5.88539 20.5447 6.11713 21.141C6.35672 21.7574 6.67728 22.2803 7.19848 22.8015C7.71967 23.3227 8.2425 23.6433 8.85896 23.8829C9.45533 24.1146 10.1368 24.273 11.1347 24.3186C12.1346 24.3642 12.4539 24.375 15 24.375C17.5461 24.375 17.8654 24.3642 18.8653 24.3186C19.8632 24.273 20.5447 24.1146 21.141 23.8829C21.7574 23.6433 22.2803 23.3227 22.8015 22.8015C23.3227 22.2803 23.6433 21.7574 23.8829 21.141C24.1146 20.5447 24.273 19.8632 24.3186 18.8653C24.3642 17.8654 24.375 17.5461 24.375 15C24.375 12.4539 24.3642 12.1346 24.3186 11.1347C24.273 10.1368 24.1146 9.45533 23.8829 8.85902C23.6433 8.24256 23.3227 7.71973 22.8015 7.19854C22.2803 6.67734 21.7574 6.35678 21.141 6.11719C20.5447 5.88545 19.8632 5.72695 18.8653 5.68143C17.8654 5.63578 17.5461 5.625 15 5.625ZM15 7.3142C17.5032 7.3142 17.7997 7.32375 18.7883 7.36887C19.7024 7.41059 20.1987 7.56328 20.5291 7.69166C20.9667 7.8617 21.279 8.0649 21.607 8.39297C21.9352 8.72098 22.1383 9.03334 22.3083 9.47092C22.4367 9.80127 22.5895 10.2976 22.6311 11.2117C22.6763 12.2003 22.6858 12.4968 22.6858 15C22.6858 17.5032 22.6763 17.7997 22.6311 18.7883C22.5895 19.7024 22.4367 20.1987 22.3083 20.5291C22.1383 20.9667 21.9352 21.279 21.607 21.607C21.279 21.9352 20.9667 22.1383 20.5291 22.3083C20.1987 22.4367 19.7024 22.5895 18.7883 22.6311C17.7999 22.6763 17.5034 22.6858 15 22.6858C12.4966 22.6858 12.2002 22.6763 11.2117 22.6311C10.2976 22.5895 9.80127 22.4367 9.47092 22.3083C9.03328 22.1383 8.72098 21.9352 8.39291 21.607C8.06484 21.279 7.8617 20.9667 7.69166 20.5291C7.56328 20.1987 7.41053 19.7024 7.36881 18.7883C7.32369 17.7997 7.3142 17.5032 7.3142 15C7.3142 12.4968 7.32369 12.2003 7.36881 11.2117C7.41053 10.2976 7.56328 9.80127 7.69166 9.47092C7.8617 9.03334 8.06484 8.72098 8.39291 8.39297C8.72098 8.0649 9.03328 7.8617 9.47092 7.69166C9.80127 7.56328 10.2976 7.41059 11.2117 7.36887C12.2003 7.32375 12.4968 7.3142 15 7.3142ZM15 10.1858C12.3412 10.1858 10.1858 12.3412 10.1858 15C10.1858 17.6588 12.3412 19.8142 15 19.8142C17.6588 19.8142 19.8142 17.6588 19.8142 15C19.8142 12.3412 17.6588 10.1858 15 10.1858ZM15 18.125C13.2741 18.125 11.875 16.7259 11.875 15C11.875 13.2741 13.2741 11.875 15 11.875C16.7259 11.875 18.125 13.2741 18.125 15C18.125 16.7259 16.7259 18.125 15 18.125ZM21.1294 9.99562C21.1294 10.617 20.6257 11.1206 20.0044 11.1206C19.3831 11.1206 18.8794 10.617 18.8794 9.99562C18.8794 9.3743 19.3831 8.87062 20.0044 8.87062C20.6257 8.87062 21.1294 9.3743 21.1294 9.99562Z"/>
    </symbol>
    <symbol xmlns="http://www.w3.org/2000/svg" viewBox="0 0 30 30" id="linkedIn">
        <path fill-rule="evenodd" clip-rule="evenodd" d="M15 0C23.2787 0 30 6.72129 30 15C30 23.2787 23.2787 30 15 30C6.72129 30 0 23.2787 0 15C0 6.72129 6.72129 0 15 0ZM10.3103 23.4299V11.7158H6.41596V23.4299H10.3103ZM24.3506 23.4299V16.7124C24.3506 13.1142 22.4295 11.4404 19.8676 11.4404C17.8019 11.4404 16.8766 12.5764 16.3585 13.3744V11.7158H12.4651C12.5167 12.8149 12.4651 23.4299 12.4651 23.4299H16.3584V16.8879C16.3584 16.5378 16.3836 16.1878 16.4868 15.9375C16.7678 15.2382 17.4089 14.5137 18.4846 14.5137C19.8928 14.5137 20.457 15.5883 20.457 17.1624V23.4299H24.3506ZM8.38945 6.06738C7.05703 6.06738 6.1865 6.94336 6.1865 8.0915C6.1865 9.21545 7.03055 10.1156 8.33789 10.1156H8.36303C9.72094 10.1156 10.5662 9.21545 10.5662 8.0915C10.541 6.94336 9.721 6.06738 8.38945 6.06738Z"/>
    </symbol>
    <symbol xmlns="http://www.w3.org/2000/svg" viewBox="0 0 30 30" id="medium">
        <path fill-rule="evenodd" clip-rule="evenodd" d="M29.9531 15C29.9531 6.74736 23.253 0.047226 15.0004 0.047226H14.9996C6.74701 0.047226 0.046875 6.74736 0.046875 15C0.046875 23.2526 6.74701 29.9528 14.9996 29.9528H15.0004C23.253 29.9528 29.9531 23.2526 29.9531 15ZM16.5014 15.0001C16.5014 18.6758 13.542 21.6554 9.89145 21.6554C6.24094 21.6554 3.28125 18.6751 3.28125 15.0001C3.28125 11.3251 6.2407 8.34457 9.89145 8.34457C13.5422 8.34457 16.5014 11.3245 16.5014 15.0001ZM23.7528 15.0001C23.7528 18.46 22.273 21.2658 20.4477 21.2658C18.6223 21.2658 17.1426 18.46 17.1426 15.0001C17.1426 11.5403 18.6221 8.73439 20.4475 8.73439C22.2728 8.73439 23.7526 11.5394 23.7526 15.0001H23.7528ZM26.7188 15.0001C26.7188 18.0993 26.1984 20.6132 25.5564 20.6132C24.9143 20.6132 24.3942 18.1 24.3942 15.0001C24.3942 11.9003 24.9145 9.38707 25.5564 9.38707C26.1982 9.38707 26.7188 11.9 26.7188 15.0001Z"/>
    </symbol>
    <symbol xmlns="http://www.w3.org/2000/svg" viewBox="0 0 30 30" id="pintrest">
        <path d="M14.9999 6.10352e-05C6.71566 6.10352e-05 0 6.7159 0 14.9999C0 21.3548 3.95361 26.7873 9.53361 28.9729C9.40236 27.786 9.28395 25.9608 9.5857 24.6652C9.85816 23.4946 11.3446 17.2092 11.3446 17.2092C11.3446 17.2092 10.8958 16.3107 10.8958 14.9822C10.8958 12.8965 12.1047 11.3394 13.61 11.3394C14.8897 11.3394 15.5079 12.3002 15.5079 13.4523C15.5079 14.7394 14.6886 16.6634 14.2656 18.4465C13.9123 19.9396 15.0144 21.1572 16.4868 21.1572C19.153 21.1572 21.2023 18.3461 21.2023 14.2883C21.2023 10.6969 18.6215 8.18578 14.9367 8.18578C10.6687 8.18578 8.16346 11.387 8.16346 14.6953C8.16346 15.9846 8.66004 17.3669 9.27979 18.1184C9.40225 18.2669 9.42029 18.3972 9.38385 18.5486C9.26988 19.0225 9.01693 20.0412 8.96719 20.2497C8.90174 20.5243 8.74975 20.5826 8.46557 20.4503C6.59209 19.5782 5.42086 16.8394 5.42086 14.6394C5.42086 9.90762 8.85867 5.56231 15.3319 5.56231C20.5354 5.56231 24.5792 9.27006 24.5792 14.2254C24.5792 19.3951 21.3197 23.5554 16.7955 23.5554C15.2756 23.5554 13.8466 22.7658 13.3576 21.8331C13.3576 21.8331 12.6053 24.697 12.423 25.3989C12.0842 26.7018 11.1701 28.3349 10.5587 29.3311C11.9623 29.7657 13.4537 30 14.9999 30C23.2844 30 30.0001 23.2845 30.0001 14.9999C30.0001 6.7159 23.2844 6.10352e-05 14.9999 6.10352e-05Z"/>
    </symbol>
    <symbol xmlns="http://www.w3.org/2000/svg" viewBox="0 0 30 30" id="reddit">
        <path fill-rule="evenodd" clip-rule="evenodd" d="M15 0C23.2787 0 30 6.72129 30 15C30 23.2787 23.2787 30 15 30C6.72129 30 0 23.2787 0 15C0 6.72129 6.72129 0 15 0ZM25 15C25 13.7895 24.0175 12.807 22.807 12.807C22.2105 12.807 21.6842 13.0351 21.2982 13.4211C19.807 12.3509 17.7369 11.6491 15.4562 11.5614L16.4561 6.87721L19.7017 7.56141C19.7368 8.38594 20.421 9.05262 21.2631 9.05262C22.1228 9.05262 22.8246 8.3509 22.8246 7.49121C22.8246 6.63158 22.1228 5.9298 21.2631 5.9298C20.6491 5.9298 20.1228 6.28072 19.8772 6.80701L16.2456 6.0351C16.1404 6.01752 16.0351 6.0351 15.9473 6.08772C15.8596 6.14033 15.807 6.22805 15.7719 6.33334L14.6667 11.5614C12.3333 11.6316 10.2456 12.3158 8.73686 13.4211C8.3509 13.0526 7.80703 12.807 7.22807 12.807C6.01752 12.807 5.03508 13.7895 5.03508 15C5.03508 15.8947 5.56143 16.6491 6.33334 17C6.29824 17.2105 6.28072 17.4386 6.28072 17.6667C6.28072 21.0351 10.193 23.7544 15.0351 23.7544C19.8772 23.7544 23.7895 21.0351 23.7895 17.6667C23.7895 17.4386 23.772 17.2281 23.7369 17.0176C24.4562 16.6666 25 15.8947 25 15ZM18.7193 20.6842C17.6491 21.7544 15.6141 21.8246 15.0175 21.8246C14.421 21.8246 12.3684 21.7368 11.3158 20.6842C11.1579 20.5263 11.1579 20.2632 11.3158 20.1053C11.4737 19.9474 11.7369 19.9474 11.8948 20.1053C12.5614 20.772 14 21.0175 15.0351 21.0175C16.0702 21.0175 17.4912 20.772 18.1754 20.1053C18.3333 19.9474 18.5965 19.9474 18.7544 20.1053C18.8772 20.2807 18.8772 20.5263 18.7193 20.6842ZM10 16.5614C10 15.7018 10.7017 15 11.5614 15C12.4211 15 13.1228 15.7018 13.1228 16.5614C13.1228 17.421 12.4211 18.1228 11.5614 18.1228C10.7017 18.1228 10 17.421 10 16.5614ZM18.4386 18.1228C17.5789 18.1228 16.8772 17.421 16.8772 16.5614C16.8772 15.7018 17.5789 15 18.4386 15C19.2983 15 20 15.7018 20 16.5614C20 17.421 19.2983 18.1228 18.4386 18.1228Z"/>
    </symbol>
    <symbol xmlns="http://www.w3.org/2000/svg" viewBox="0 0 30 30" id="tumblr">
        <path fill-rule="evenodd" clip-rule="evenodd" d="M15.022 0C6.71766 0 0 6.7234 0 14.9892C0 23.255 6.71766 30 15.022 30C23.2804 30 30 23.255 30 14.9892C30 6.67922 23.2804 0 15.022 0ZM16.0158 10.9789V6.52945H13.2879C13.1617 8.48871 12.0625 10.7512 9.43582 11.434V14.2399H11.8235V19.422C11.8235 22.6579 13.7811 24.0107 16.4077 24.0107H19.325V20.5724H17.7841C16.6963 20.571 16.0158 20.1029 16.0158 18.7522V14.2399H19.1988V10.9789H16.0158Z"/>
    </symbol>
    <symbol xmlns="http://www.w3.org/2000/svg" viewBox="0 0 30 30" id="twitter">
        <path fill-rule="evenodd" clip-rule="evenodd" d="M15 0C23.2787 0 30 6.72129 30 15C30 23.2787 23.2787 30 15 30C6.72129 30 0 23.2787 0 15C0 6.72129 6.72129 0 15 0ZM12.3579 22.978C18.9956 22.978 22.625 17.4778 22.625 12.711C22.625 12.5539 22.625 12.3967 22.6175 12.247C23.3209 11.7382 23.9346 11.1021 24.4209 10.3763C23.7774 10.6606 23.0814 10.8552 22.3481 10.945C23.0964 10.496 23.6651 9.79254 23.9346 8.94697C23.2386 9.35854 22.4678 9.65783 21.6446 9.82248C20.9861 9.11906 20.0507 8.68506 19.0106 8.68506C17.02 8.68506 15.4037 10.3014 15.4037 12.292C15.4037 12.5763 15.4336 12.8532 15.5009 13.1151C12.5002 12.9654 9.84357 11.5287 8.06262 9.34354C7.75576 9.87486 7.57617 10.496 7.57617 11.1545C7.57617 12.4042 8.21227 13.5117 9.1851 14.1553C8.59389 14.1403 8.04012 13.9757 7.55373 13.7063V13.7512C7.55373 15.5023 8.79592 16.954 10.4497 17.2908C10.1504 17.373 9.82863 17.418 9.49939 17.418C9.26736 17.418 9.04289 17.3955 8.81842 17.3506C9.27486 18.7874 10.6069 19.8276 12.1859 19.8575C10.9511 20.8229 9.39463 21.3991 7.70338 21.3991C7.41152 21.3991 7.12717 21.3841 6.84281 21.3467C8.4218 22.3794 10.3225 22.978 12.3579 22.978Z"/>
    </symbol>
    <symbol xmlns="http://www.w3.org/2000/svg" viewBox="0 0 30 30" id="vimeo">
        <path fill-rule="evenodd" clip-rule="evenodd" d="M15 0C23.2787 0 30 6.72129 30 15C30 23.2787 23.2787 30 15 30C6.72129 30 0 23.2787 0 15C0 6.72129 6.72129 0 15 0ZM23.3926 12.06C23.3143 13.7708 22.1194 16.1134 19.8076 19.087C17.4178 22.1924 15.3956 23.7455 13.7419 23.7455C12.7171 23.7455 11.8499 22.8004 11.1417 20.9085C10.6688 19.1744 10.1963 17.4405 9.72299 15.7064C9.19699 13.8158 8.63285 12.8692 8.0294 12.8692C7.89785 12.8692 7.43771 13.1459 6.6498 13.697L5.82299 12.632C6.69059 11.8699 7.54617 11.1079 8.38799 10.3446C9.54504 9.34523 10.4142 8.81941 10.9931 8.76627C12.3608 8.63473 13.2028 9.56982 13.5188 11.5711C13.8604 13.7304 14.0969 15.0735 14.2294 15.5989C14.6243 17.3909 15.0583 18.2858 15.5318 18.2858C15.8993 18.2858 16.4522 17.7046 17.1895 16.542C17.9251 15.3803 18.3193 14.496 18.3727 13.8884C18.4779 12.8854 18.0832 12.3829 17.1895 12.3829C16.7685 12.3829 16.3345 12.4796 15.8882 12.671C16.7522 9.84182 18.4029 8.46791 20.8388 8.54613C22.645 8.59928 23.497 9.77045 23.3926 12.06Z"/>
    </symbol>
    <symbol xmlns="http://www.w3.org/2000/svg" viewBox="0 0 30 30" id="whatsapp">
        <path fill-rule="evenodd" clip-rule="evenodd" d="M15 0C23.2787 0 30 6.72129 30 15C30 23.2787 23.2787 30 15 30C6.72129 30 0 23.2787 0 15C0 6.72129 6.72129 0 15 0ZM22.1207 7.90102C20.3251 6.10383 17.9371 5.11365 15.3929 5.11266C10.1506 5.11266 5.88404 9.37758 5.88199 14.6198C5.88129 16.2956 6.31922 17.9313 7.15148 19.3731L5.80219 24.3L10.8441 22.9779C12.2332 23.7353 13.7972 24.1345 15.3891 24.1352H15.393C20.6347 24.1352 24.9016 19.8697 24.9037 14.6274C24.9047 12.0869 23.9164 9.69809 22.1207 7.90102ZM15.3929 22.5294H15.3898C13.9713 22.5288 12.58 22.1479 11.3663 21.4279L11.0776 21.2565L8.08576 22.0412L8.88434 19.125L8.69637 18.8261C7.90506 17.5679 7.48717 16.1136 7.48775 14.6204C7.48951 10.2633 11.0357 6.71842 15.3961 6.71842C17.5075 6.71924 19.4923 7.54236 20.9848 9.03603C22.4773 10.5298 23.2987 12.5153 23.2979 14.6268C23.2962 18.9843 19.75 22.5293 15.3929 22.5294ZM19.729 16.6108C19.4914 16.4919 18.323 15.9172 18.1051 15.8379C17.8873 15.7586 17.7289 15.7189 17.5705 15.9568C17.4121 16.1946 16.9566 16.7297 16.818 16.8883C16.6794 17.0468 16.5408 17.0667 16.3031 16.9477C16.0655 16.8289 15.2998 16.578 14.3921 15.7686C13.6856 15.1387 13.2087 14.3606 13.07 14.1229C12.9315 13.885 13.0553 13.7565 13.1743 13.638C13.2812 13.5316 13.4119 13.3605 13.5307 13.2218C13.6495 13.083 13.6891 12.984 13.7684 12.8255C13.8476 12.6669 13.808 12.5282 13.7486 12.4092C13.6891 12.2903 13.2139 11.121 13.0158 10.6453C12.823 10.1821 12.6271 10.2448 12.4812 10.2375C12.3427 10.2306 12.1842 10.2291 12.0257 10.2291C11.8673 10.2291 11.6099 10.2886 11.392 10.5264C11.1742 10.7643 10.5603 11.339 10.5603 12.5083C10.5603 13.6777 11.4118 14.8073 11.5307 14.9659C11.6495 15.1245 13.2064 17.524 15.5903 18.5531C16.1572 18.7978 16.5999 18.944 16.945 19.0535C17.5143 19.2343 18.0323 19.2088 18.4419 19.1476C18.8984 19.0794 19.8479 18.5729 20.0459 18.018C20.2438 17.463 20.2438 16.9874 20.1845 16.8883C20.1251 16.7892 19.9666 16.7297 19.729 16.6108Z"/>
    </symbol>
    <symbol xmlns="http://www.w3.org/2000/svg" viewBox="0 0 30 30" id="youtube">
        <path fill-rule="evenodd" clip-rule="evenodd" d="M15 0C23.2787 0 30 6.72129 30 15C30 23.2787 23.2787 30 15 30C6.72129 30 0 23.2787 0 15C0 6.72129 6.72129 0 15 0ZM23.9833 10.487C23.7677 9.68021 23.1324 9.045 22.3257 8.82938C20.8633 8.4375 15 8.4375 15 8.4375C15 8.4375 9.1367 8.4375 7.67432 8.82938C6.86777 9.045 6.23232 9.68021 6.0167 10.487C5.625 11.9492 5.625 15.0001 5.625 15.0001C5.625 15.0001 5.625 18.0509 6.0167 19.513C6.23232 20.3198 6.86777 20.9552 7.67432 21.1708C9.1367 21.5625 15 21.5625 15 21.5625C15 21.5625 20.8633 21.5625 22.3257 21.1708C23.1324 20.9552 23.7677 20.3198 23.9833 19.513C24.375 18.0509 24.375 15.0001 24.375 15.0001C24.375 15.0001 24.375 11.9492 23.9833 10.487ZM13.1249 17.8127V12.1876L17.9963 15.0001L13.1249 17.8127Z"/>
    </symbol>
</svg>
